<?xml version="1.0" encoding="utf-8"?>
<!-- Generator: Adobe Illustrator 19.0.0, SVG Export Plug-In . SVG Version: 6.00 Build 0)  -->
<svg version="1.1" id="Layer_1" xmlns="http://www.w3.org/2000/svg" xmlns:xlink="http://www.w3.org/1999/xlink" x="0px" y="0px"
	 viewBox="0 0 40 40" style="enable-background:new 0 0 40 40;" xml:space="preserve">
<style type="text/css">
	.st0{fill:#FEDD47;}
	.st1{fill:#FFFFFF;}
	.st2{fill:#07A25D;}
	.st3{fill:#5385C5;}
	.st4{fill:#D4D4D4;}
	.st5{fill:#E03C27;}
	.st6{fill:#A01D21;}
	.st7{fill:none;}
</style>
<g>
	<rect id="XMLID_11_" x="0" class="st0" width="40" height="40"/>
	<polygon id="XMLID_10_" class="st1" points="20,26 23.6,22.3 28.3,22.3 40,37.6 40,40 32.1,40 	"/>
	<polygon id="XMLID_9_" class="st2" points="0,0 0,38.7 39,0 	"/>
	<polygon id="XMLID_8_" class="st3" points="6.1,40 20,26 34,40 	"/>
	<polygon id="XMLID_7_" class="st4" points="23.6,22.3 40,5.9 40,38.7 	"/>
	<path id="g_2_" class="st1" d="M11.8,13c0,0-1.1-0.6-1.1-1.1c0,0-0.3-1,0.5-1.6c0.8-0.6,1.6-1.6,1.6-2.7c0-1.2-0.6-2.7-1.6-3.2h1.6
		L14.1,4c0,0-3.7,0-5,0C7,4,4.9,5.7,4.9,7.7c0,2,1.5,3.5,3.8,3.5c0.2,0,0.3,0,0.5,0c-0.1,0.3-0.3,0.6-0.3,0.9c0,0.6,0.4,1.1,0.8,1.4
		c-0.3,0-0.8,0-1.1,0c-2.7,0-4.8,1.4-4.8,3.2c0,1.8,2.6,3.2,5.3,3.2c3.1,0,5.3-1.6,5.3-3.7C14.5,14.7,13.1,13.9,11.8,13z M9.7,10.9
		c-1.3,0-3-1.5-3.2-3.2C6.3,6,7.4,4.5,8.6,4.5s2.4,1.5,2.7,3.2C11.5,9.4,10.8,10.9,9.7,10.9z M9.2,18.8c-1.9,0-3.7-0.7-3.7-2.1
		c0-1.4,1.8-2.7,3.7-2.7c0.4,0,1.1,0,1.1,0c0.5,0,1.5,0.5,2.1,1.1c0.5,0.5,0.5,1.4,0.5,1.6C12.9,18.3,11.8,18.8,9.2,18.8z"/>
	<path id="XMLID_3_" class="st5" d="M36.4,4.5c-3-3.2-6.4-2.9-6.4-2.9v0h0v0c0,0-3.4-0.3-6.4,2.9s-2.4,8.4,0,12.2s3.9,6.4,4.5,7.8
		s1.2,3.3,1.4,4.5s0.1,2.4,0.6,2.4v-0.3l0,0v0.3c0.5,0,0.4-1.1,0.6-2.4s0.8-3.1,1.4-4.5s2-4,4.5-7.8S39.3,7.7,36.4,4.5z"/>
	<circle id="XMLID_2_" class="st6" cx="30" cy="10.4" r="2.9"/>
	<path id="XMLID_1_" class="st7" d="M40,37V3c0-1.7-1.3-3-3-3L3,0C1.3,0,0,1.3,0,3l0,34c0,1.7,1.3,3,3,3h34C38.7,40,40,38.7,40,37z"
		/>
</g>
</svg>
